# Blender 4.2.21 LTS
# www.blender.org
mtllib bed.mtl
o bed
v -4.975000 0.024723 0.496291
v -5.000000 0.025000 0.470970
v -4.975000 0.000000 0.475000
v -4.995917 0.024862 0.492047
v -4.993845 0.006122 0.492892
v -4.995917 0.004177 0.474234
v -4.975000 0.003945 0.495419
v -4.975000 0.000000 -0.475000
v -5.000000 0.025000 -0.470970
v -4.975000 0.024723 -0.496291
v -4.995917 0.004177 -0.474234
v -4.993845 0.006122 -0.492892
v -4.995917 0.024862 -0.492047
v -4.975000 0.003945 -0.495419
v -4.975000 0.475277 -0.428709
v -5.000000 0.477946 -0.403028
v -4.975000 0.503615 -0.400263
v -4.995917 0.475394 -0.424197
v -4.993845 0.494686 -0.419706
v -4.995917 0.499104 -0.400397
v -4.975000 0.496871 -0.421883
v -4.975000 0.506737 -0.378904
v -5.000000 0.485598 -0.350672
v -4.975000 0.513727 -0.329395
v -4.995917 0.504496 -0.366005
v -4.994524 0.509329 -0.354022
v -4.995917 0.508002 -0.341170
v -4.975000 0.510232 -0.354150
v -4.975000 0.516626 -0.308105
v -5.000000 0.495197 -0.280194
v -4.975000 0.522904 -0.258503
v -4.995917 0.514251 -0.295285
v -4.994524 0.518933 -0.283198
v -4.995917 0.517410 -0.270326
v -4.975000 0.519765 -0.283304
v -4.975000 0.525380 -0.237331
v -5.000000 0.503414 -0.209930
v -4.975000 0.530519 -0.187600
v -4.995917 0.522757 -0.224608
v -4.994524 0.527178 -0.212386
v -4.995917 0.525349 -0.199518
v -4.975000 0.527950 -0.212465
v -4.975000 0.532406 -0.166567
v -5.000000 0.509704 -0.139844
v -4.975000 0.536049 -0.116706
v -4.995917 0.529438 -0.153957
v -4.994524 0.533504 -0.141584
v -4.995917 0.531280 -0.128750
v -4.975000 0.534228 -0.141636
v -4.975000 0.537229 -0.095794
v -5.000000 0.513651 -0.069888
v -4.975000 0.539118 -0.045838
v -4.995917 0.533843 -0.083315
v -4.994524 0.537545 -0.070792
v -4.995917 0.534799 -0.058025
v -4.975000 0.538486 -0.070828
v -4.975000 0.539519 -0.024995
v -5.000000 0.514995 -0.000000
v -4.975000 0.539519 0.024995
v -4.995917 0.535672 -0.012659
v -4.994524 0.538903 0.000000
v -4.995917 0.535672 0.012659
v -4.974999 0.539843 0.000000
v -4.975000 0.539118 0.045838
v -5.000000 0.513651 0.069888
v -4.975000 0.537229 0.095794
v -4.995917 0.534799 0.058025
v -4.994524 0.537545 0.070792
v -4.995917 0.533843 0.083315
v -4.975000 0.538486 0.070828
v -4.975000 0.536049 0.116706
v -5.000000 0.509704 0.139844
v -4.975000 0.532406 0.166567
v -4.995917 0.531280 0.128750
v -4.994524 0.533504 0.141584
v -4.995917 0.529438 0.153957
v -4.975000 0.534228 0.141636
v -4.975000 0.530519 0.187600
v -5.000000 0.503414 0.209930
v -4.975000 0.525380 0.237331
v -4.995917 0.525349 0.199518
v -4.994524 0.527178 0.212386
v -4.995917 0.522757 0.224608
v -4.975000 0.527950 0.212465
v -4.975000 0.522904 0.258503
v -5.000000 0.495197 0.280194
v -4.975000 0.516626 0.308105
v -4.995917 0.517410 0.270326
v -4.994524 0.518933 0.283198
v -4.995917 0.514251 0.295285
v -4.975000 0.519765 0.283304
v -4.975000 0.513727 0.329395
v -5.000000 0.485598 0.350672
v -4.975000 0.506737 0.378904
v -4.995917 0.508002 0.341170
v -4.994524 0.509329 0.354022
v -4.995917 0.504496 0.366005
v -4.975000 0.510232 0.354150
v -4.975000 0.475277 0.428709
v -4.975000 0.503615 0.400263
v -5.000000 0.477946 0.403028
v -4.975000 0.496871 0.421883
v -4.993845 0.494686 0.419706
v -4.995916 0.499104 0.400397
v -4.995916 0.475394 0.424197
v 4.975000 0.024723 0.496291
v 4.975000 0.000000 0.475000
v 5.000000 0.025000 0.470970
v 4.975000 0.003945 0.495419
v 4.993845 0.006122 0.492892
v 4.995916 0.004177 0.474234
v 4.995916 0.024862 0.492047
v 4.975000 0.475277 0.428709
v 5.000000 0.477946 0.403028
v 4.975000 0.503615 0.400263
v 4.995917 0.475394 0.424197
v 4.993845 0.494686 0.419706
v 4.995917 0.499104 0.400397
v 4.975000 0.496871 0.421883
v 4.975000 0.506737 0.378904
v 5.000000 0.485598 0.350672
v 4.975000 0.513727 0.329395
v 4.995917 0.504496 0.366005
v 4.994524 0.509329 0.354022
v 4.995917 0.508002 0.341170
v 4.975000 0.510232 0.354150
v 4.975000 0.516626 0.308105
v 5.000000 0.495197 0.280194
v 4.975000 0.522904 0.258503
v 4.995917 0.514251 0.295285
v 4.994524 0.518933 0.283198
v 4.995917 0.517410 0.270326
v 4.975000 0.519765 0.283304
v 4.975000 0.525380 0.237331
v 5.000000 0.503414 0.209930
v 4.975000 0.530519 0.187600
v 4.995917 0.522757 0.224608
v 4.994524 0.527178 0.212386
v 4.995917 0.525349 0.199518
v 4.975000 0.527950 0.212465
v 4.975000 0.532406 0.166567
v 5.000000 0.509704 0.139844
v 4.975000 0.536049 0.116706
v 4.995917 0.529438 0.153957
v 4.994524 0.533504 0.141584
v 4.995917 0.531280 0.128750
v 4.975000 0.534228 0.141636
v 4.975000 0.537229 0.095794
v 5.000000 0.513651 0.069888
v 4.975000 0.539118 0.045838
v 4.995917 0.533843 0.083315
v 4.994524 0.537545 0.070792
v 4.995917 0.534799 0.058025
v 4.975000 0.538486 0.070828
v 4.975000 0.539519 0.024995
v 5.000000 0.514995 0.000000
v 4.975000 0.539519 -0.024995
v 4.995917 0.535672 0.012659
v 4.994524 0.538903 0.000000
v 4.995917 0.535672 -0.012659
v 4.975000 0.539843 -0.000000
v 4.975000 0.539118 -0.045838
v 5.000000 0.513651 -0.069888
v 4.975000 0.537229 -0.095794
v 4.995917 0.534799 -0.058025
v 4.994524 0.537545 -0.070792
v 4.995917 0.533843 -0.083315
v 4.975000 0.538486 -0.070828
v 4.975000 0.536049 -0.116706
v 5.000000 0.509704 -0.139844
v 4.975000 0.532406 -0.166567
v 4.995917 0.531280 -0.128750
v 4.994524 0.533504 -0.141584
v 4.995917 0.529438 -0.153957
v 4.975000 0.534228 -0.141636
v 4.975000 0.530519 -0.187600
v 5.000000 0.503414 -0.209930
v 4.975000 0.525380 -0.237331
v 4.995917 0.525349 -0.199518
v 4.994524 0.527178 -0.212386
v 4.995917 0.522757 -0.224608
v 4.975000 0.527950 -0.212465
v 4.975000 0.522904 -0.258503
v 5.000000 0.495197 -0.280194
v 4.975000 0.516626 -0.308105
v 4.995917 0.517410 -0.270326
v 4.994524 0.518933 -0.283198
v 4.995917 0.514251 -0.295285
v 4.975000 0.519765 -0.283304
v 4.975000 0.513727 -0.329395
v 5.000000 0.485598 -0.350672
v 4.975000 0.506737 -0.378904
v 4.995917 0.508002 -0.341170
v 4.994524 0.509329 -0.354022
v 4.995917 0.504496 -0.366005
v 4.975000 0.510232 -0.354150
v 4.975000 0.503615 -0.400263
v 5.000000 0.477946 -0.403028
v 4.975000 0.475277 -0.428709
v 4.995917 0.499104 -0.400397
v 4.993845 0.494686 -0.419706
v 4.995917 0.475394 -0.424197
v 4.975000 0.496871 -0.421883
v 4.975000 0.024723 -0.496291
v 5.000000 0.025000 -0.470970
v 4.975000 0.000000 -0.475000
v 4.995917 0.024862 -0.492047
v 4.993845 0.006122 -0.492892
v 4.995917 0.004177 -0.474234
v 4.975000 0.003945 -0.495419
vn -0.0000 -1.0000 -0.0000
vn -0.0000 0.9932 0.1162
vn -0.0000 0.9932 -0.1162
vn -0.0000 0.9909 0.1349
vn -0.0000 0.9960 -0.0894
vn -0.0000 0.9895 0.1446
vn -0.0000 0.9984 -0.0563
vn 1.0000 -0.0000 -0.0000
vn -0.0000 0.9998 -0.0192
vn -1.0000 -0.0000 -0.0000
vn -0.0000 0.9998 0.0192
vn -0.0000 0.1483 -0.9889
vn -0.0000 0.9984 0.0563
vn -0.0000 0.9895 -0.1446
vn -0.0000 0.9960 0.0894
vn -0.0000 0.9909 -0.1350
vn -0.1684 -0.0095 0.9857
vn -0.9781 -0.1358 0.1577
vn -0.1684 -0.9734 0.1556
vn -0.1684 -0.9734 -0.1556
vn -0.9781 -0.1358 -0.1577
vn -0.1684 -0.0095 -0.9857
vn -0.1734 0.2709 -0.9469
vn -0.9677 0.1786 -0.1779
vn -0.1734 0.9479 -0.2673
vn -0.1439 0.9663 -0.2136
vn -0.9749 0.2206 -0.0311
vn -0.1439 0.9876 -0.0623
vn -0.1409 0.9696 -0.2002
vn -0.9748 0.2214 -0.0280
vn -0.1409 0.9889 -0.0476
vn -0.1383 0.9742 -0.1784
vn -0.9747 0.2223 -0.0230
vn -0.1383 0.9901 -0.0245
vn -0.1362 0.9793 -0.1495
vn -0.9747 0.2231 -0.0163
vn -0.1362 0.9907 0.0055
vn -0.1436 0.9818 -0.1245
vn -0.9748 0.2231 -0.0084
vn -0.1436 0.9884 0.0500
vn -0.1434 0.9858 -0.0878
vn -0.9748 0.2233 -0.0000
vn -0.1434 0.9858 0.0878
vn -0.1436 0.9884 -0.0500
vn -0.9748 0.2231 0.0084
vn -0.1436 0.9818 0.1245
vn -0.1362 0.9907 -0.0055
vn -0.9747 0.2231 0.0163
vn -0.1362 0.9793 0.1495
vn -0.1383 0.9901 0.0245
vn -0.9747 0.2223 0.0230
vn -0.1383 0.9742 0.1784
vn -0.1409 0.9889 0.0476
vn -0.9748 0.2214 0.0280
vn -0.1409 0.9696 0.2002
vn -0.1439 0.9876 0.0623
vn -0.9749 0.2206 0.0311
vn -0.1439 0.9663 0.2136
vn -0.1734 0.2709 0.9469
vn -0.1734 0.9479 0.2673
vn -0.9677 0.1786 0.1779
vn 0.1684 -0.0095 0.9857
vn 0.1684 -0.9734 0.1556
vn 0.9781 -0.1358 0.1577
vn 0.1734 0.2709 0.9469
vn 0.9677 0.1786 0.1779
vn 0.1734 0.9479 0.2673
vn 0.1439 0.9663 0.2136
vn 0.9749 0.2206 0.0311
vn 0.1439 0.9876 0.0623
vn 0.1409 0.9696 0.2002
vn 0.9748 0.2214 0.0280
vn 0.1409 0.9889 0.0476
vn 0.1383 0.9742 0.1784
vn 0.9747 0.2223 0.0230
vn 0.1383 0.9901 0.0245
vn 0.1362 0.9793 0.1495
vn 0.9747 0.2231 0.0163
vn 0.1362 0.9907 -0.0055
vn 0.1436 0.9818 0.1245
vn 0.9748 0.2231 0.0084
vn 0.1436 0.9884 -0.0500
vn 0.1434 0.9858 0.0878
vn 0.9748 0.2233 -0.0000
vn 0.1434 0.9858 -0.0877
vn 0.1436 0.9884 0.0500
vn 0.9748 0.2231 -0.0084
vn 0.1436 0.9818 -0.1245
vn 0.1362 0.9907 0.0055
vn 0.9747 0.2231 -0.0163
vn 0.1362 0.9793 -0.1495
vn 0.1383 0.9901 -0.0245
vn 0.9747 0.2223 -0.0230
vn 0.1383 0.9742 -0.1784
vn 0.1409 0.9889 -0.0476
vn 0.9748 0.2214 -0.0280
vn 0.1409 0.9696 -0.2002
vn 0.1439 0.9876 -0.0623
vn 0.9749 0.2206 -0.0311
vn 0.1439 0.9663 -0.2136
vn 0.1734 0.9479 -0.2673
vn 0.9677 0.1786 -0.1779
vn 0.1734 0.2709 -0.9469
vn 0.1684 -0.0095 -0.9857
vn 0.9781 -0.1358 -0.1577
vn 0.1684 -0.9734 -0.1556
vn -0.9811 0.0288 0.1915
vn -0.2018 0.1456 0.9685
vn -0.9813 -0.1924 -0.0000
vn -0.1958 -0.9806 -0.0000
vn -0.9811 0.0288 -0.1915
vn -0.2018 0.1456 -0.9685
vn -0.9812 0.1909 -0.0287
vn -0.2014 0.9683 -0.1479
vn -0.9815 0.1898 -0.0259
vn -0.1916 0.9725 -0.1325
vn -0.9815 0.1903 -0.0223
vn -0.1916 0.9748 -0.1140
vn -0.9815 0.1908 -0.0171
vn -0.1916 0.9775 -0.0877
vn -0.9815 0.1913 -0.0108
vn -0.1916 0.9799 -0.0553
vn -0.9815 0.1916 -0.0037
vn -0.1916 0.9813 -0.0189
vn -0.9815 0.1916 0.0037
vn -0.1916 0.9813 0.0189
vn -0.9815 0.1913 0.0108
vn -0.1916 0.9799 0.0553
vn -0.9815 0.1908 0.0171
vn -0.1916 0.9775 0.0877
vn -0.9815 0.1903 0.0223
vn -0.1916 0.9748 0.1140
vn -0.9815 0.1898 0.0259
vn -0.1916 0.9725 0.1325
vn -0.9812 0.1909 0.0287
vn -0.2014 0.9683 0.1479
vn 0.2018 0.1456 0.9685
vn 0.9811 0.0288 0.1915
vn 0.2014 0.9683 0.1479
vn 0.9812 0.1909 0.0287
vn 0.1916 0.9725 0.1325
vn 0.9815 0.1898 0.0259
vn 0.1916 0.9748 0.1140
vn 0.9815 0.1903 0.0223
vn 0.1916 0.9775 0.0877
vn 0.9815 0.1908 0.0171
vn 0.1916 0.9799 0.0553
vn 0.9815 0.1913 0.0108
vn 0.1916 0.9813 0.0189
vn 0.9815 0.1916 0.0037
vn 0.1916 0.9813 -0.0189
vn 0.9815 0.1916 -0.0037
vn 0.1916 0.9799 -0.0553
vn 0.9815 0.1913 -0.0108
vn 0.1916 0.9775 -0.0877
vn 0.9815 0.1908 -0.0171
vn 0.1916 0.9748 -0.1140
vn 0.9815 0.1903 -0.0223
vn 0.1916 0.9725 -0.1325
vn 0.9815 0.1898 -0.0259
vn 0.2014 0.9683 -0.1479
vn 0.9812 0.1909 -0.0287
vn 0.2018 0.1456 -0.9685
vn 0.9811 0.0288 -0.1915
vn 0.1958 -0.9806 -0.0000
vn 0.9813 -0.1924 -0.0000
vn -0.0000 0.9973 0.0729
vn -0.0000 0.9947 0.1028
vn -0.0000 0.9902 -0.1398
vn -0.0000 0.9921 -0.1256
vn -0.0000 0.9921 0.1256
vn -0.0000 0.9947 -0.1028
vn -0.0000 0.9902 0.1398
vn -0.0000 0.9973 -0.0729
vn -0.0000 0.9546 0.2978
vn -0.0000 0.3014 0.9535
vn -0.0000 0.9987 -0.0503
vn -0.0000 0.9997 -0.0253
vn -0.0000 -0.0420 0.9991
vn -0.0000 -0.9818 0.1897
vn -0.0000 0.9999 -0.0130
vn -0.0000 0.9999 0.0130
vn -0.0000 -0.9818 -0.1897
vn -0.0000 -0.0420 -0.9991
vn -0.0000 0.9997 0.0253
vn -0.0000 0.9987 0.0503
vn -0.0000 0.3014 -0.9535
vn -0.0000 0.9546 -0.2978
vn -0.0000 0.1483 0.9889
vt -4.975000 0.975000
vt 4.975000 0.975000
vt 4.975000 0.025000
vt -4.975000 0.025000
vt -4.975000 0.241497
vt 4.975000 0.241497
vt 4.975000 0.262669
vt -4.975000 0.262669
vt -4.975000 0.737331
vt 4.975000 0.737331
vt 4.975000 0.758503
vt -4.975000 0.758503
vt -4.975000 0.170605
vt 4.975000 0.170605
vt 4.975000 0.191895
vt -4.975000 0.191895
vt -4.975000 0.666567
vt 4.975000 0.666567
vt 4.975000 0.687600
vt -4.975000 0.687600
vt -4.975000 0.099737
vt 4.975000 0.099737
vt 4.975000 0.121096
vt -4.975000 0.121096
vt -4.975000 0.595794
vt 4.975000 0.595794
vt 4.975000 0.616706
vt -4.975000 0.616706
vt -0.470970 0.050000
vt 0.470970 0.050000
vt 0.403028 0.955891
vt 0.350672 0.971196
vt 0.280194 0.990394
vt 0.209930 1.006829
vt 0.139844 1.019408
vt 0.069888 1.027301
vt -0.000000 1.029991
vt -0.069888 1.027301
vt -0.139844 1.019408
vt -0.209930 1.006829
vt -0.280194 0.990394
vt -0.350672 0.971196
vt -0.403028 0.955891
vt -4.975000 0.524995
vt 4.975000 0.524995
vt 4.975000 0.545838
vt -4.975000 0.545838
vt 0.000000 1.029991
vt -4.975000 0.454162
vt 4.975000 0.454162
vt 4.975000 0.475005
vt -4.975000 0.475005
vt -4.975000 0.928709
vt 4.975000 0.928709
vt 4.975000 0.996292
vt -4.975000 0.996292
vt -4.975000 0.383294
vt 4.975000 0.383294
vt 4.975000 0.404206
vt -4.975000 0.404206
vt -4.975000 0.878904
vt 4.975000 0.878904
vt 4.975000 0.900263
vt -4.975000 0.900263
vt -4.975000 0.312400
vt 4.975000 0.312400
vt 4.975000 0.333433
vt -4.975000 0.333433
vt -4.975000 0.808105
vt 4.975000 0.808105
vt 4.975000 0.829395
vt -4.975000 0.829395
vt -4.975000 0.003709
vt -4.995917 0.007953
vt -4.993845 0.007108
vt -4.975000 0.004581
vt -0.474234 0.008353
vt -0.492892 0.012243
vt -0.492047 0.049723
vt -4.995917 0.025766
vt -4.995917 0.974234
vt -4.993845 0.992892
vt -4.975000 0.995419
vt 0.492047 0.049723
vt 0.492892 0.012243
vt 0.474234 0.008353
vt -4.995917 0.992047
vt -4.995917 0.924197
vt -4.993845 0.919706
vt -4.975000 0.921883
vt 0.400397 0.998208
vt 0.419706 0.989372
vt 0.424197 0.950788
vt -4.995917 0.900397
vt -4.995917 0.866005
vt -4.994524 0.854022
vt -4.975000 0.854150
vt 0.341170 1.016003
vt 0.354022 1.018658
vt 0.366005 1.008991
vt -4.995917 0.841170
vt -4.995917 0.795285
vt -4.994524 0.783198
vt -4.975000 0.783304
vt 0.270326 1.034820
vt 0.283198 1.037866
vt 0.295285 1.028502
vt -4.995917 0.770326
vt -4.995917 0.724608
vt -4.994524 0.712386
vt -4.975000 0.712465
vt 0.199518 1.050699
vt 0.212386 1.054357
vt 0.224608 1.045514
vt -4.995917 0.699517
vt -4.995917 0.653957
vt -4.994524 0.641584
vt -4.975000 0.641636
vt 0.128750 1.062559
vt 0.141584 1.067008
vt 0.153957 1.058876
vt -4.995917 0.628750
vt -4.995917 0.583315
vt -4.994524 0.570792
vt -4.975000 0.570828
vt 0.058025 1.069598
vt 0.070792 1.075089
vt 0.083315 1.067686
vt -4.995917 0.558025
vt -4.995917 0.512659
vt -4.994524 0.500000
vt -4.974999 0.500000
vt -0.012659 1.071344
vt -0.000000 1.077806
vt 0.012659 1.071344
vt -4.995917 0.487341
vt -4.995917 0.441975
vt -4.994524 0.429208
vt -4.975000 0.429172
vt -0.083315 1.067686
vt -0.070792 1.075089
vt -0.058025 1.069598
vt -4.995917 0.416685
vt -4.995917 0.371250
vt -4.994524 0.358416
vt -4.975000 0.358364
vt -0.153957 1.058876
vt -0.141584 1.067008
vt -0.128750 1.062559
vt -4.995917 0.346043
vt -4.995917 0.300482
vt -4.994524 0.287614
vt -4.975000 0.287535
vt -0.224608 1.045514
vt -0.212386 1.054357
vt -0.199518 1.050699
vt -4.995917 0.275392
vt -4.995917 0.229674
vt -4.994524 0.216802
vt -4.975000 0.216696
vt -0.295285 1.028502
vt -0.283198 1.037866
vt -0.270326 1.034820
vt -4.995917 0.204715
vt -4.995917 0.158830
vt -4.994524 0.145978
vt -4.975000 0.145850
vt -0.366005 1.008991
vt -0.354022 1.018658
vt -0.341170 1.016003
vt -4.995917 0.133995
vt -4.975000 0.071291
vt -4.975000 0.078117
vt -4.993845 0.080294
vt -4.995916 0.075803
vt -4.995916 0.099603
vt -0.424197 0.950788
vt -0.419706 0.989372
vt -0.400397 0.998208
vt 4.975000 0.003709
vt 4.975000 0.004581
vt 4.993845 0.007108
vt 4.995916 0.007953
vt 4.995916 0.025766
vt -0.474234 0.008353
vt 4.975000 0.071291
vt 4.995917 0.075803
vt 4.993845 0.080294
vt 4.975000 0.078117
vt 4.995917 0.099603
vt 4.995917 0.133995
vt 4.994524 0.145978
vt 4.975000 0.145850
vt -0.341170 1.016003
vt -0.354022 1.018658
vt -0.366005 1.008991
vt 4.995917 0.158830
vt 4.995917 0.204715
vt 4.994524 0.216802
vt 4.975000 0.216696
vt -0.270326 1.034820
vt -0.295285 1.028502
vt 4.995917 0.229674
vt 4.995917 0.275392
vt 4.994524 0.287614
vt 4.975000 0.287535
vt -0.199518 1.050699
vt -0.212386 1.054357
vt 4.995917 0.300483
vt 4.995917 0.346043
vt 4.994524 0.358416
vt 4.975000 0.358364
vt -0.153957 1.058876
vt 4.995917 0.371250
vt 4.995917 0.416685
vt 4.994524 0.429208
vt 4.975000 0.429172
vt -0.070792 1.075089
vt -0.083315 1.067686
vt 4.995917 0.441975
vt 4.995917 0.487341
vt 4.994524 0.500000
vt 4.975000 0.500000
vt 0.012659 1.071344
vt -0.000000 1.077806
vt -0.012659 1.071344
vt 4.995917 0.512659
vt 4.995917 0.558025
vt 4.994524 0.570792
vt 4.975000 0.570828
vt 0.083315 1.067686
vt 0.070792 1.075089
vt 4.995917 0.583315
vt 4.995917 0.628750
vt 4.994524 0.641584
vt 4.975000 0.641636
vt 0.153957 1.058876
vt 4.995917 0.653957
vt 4.995917 0.699517
vt 4.994524 0.712386
vt 4.975000 0.712465
vt 0.212386 1.054357
vt 0.199518 1.050699
vt 4.995917 0.724608
vt 4.995917 0.770326
vt 4.994524 0.783198
vt 4.975000 0.783304
vt 0.295285 1.028502
vt 0.270326 1.034820
vt 4.995917 0.795285
vt 4.995917 0.841170
vt 4.994524 0.854022
vt 4.975000 0.854150
vt 0.366005 1.008991
vt 0.354022 1.018658
vt 0.341170 1.016003
vt 4.995917 0.866005
vt 4.995917 0.900397
vt 4.993845 0.919706
vt 4.975000 0.921883
vt 4.995917 0.924197
vt 4.995917 0.992047
vt 4.993845 0.992892
vt 4.975000 0.995419
vt 0.474234 0.008353
vt 4.995917 0.974234
s 0
usemtl mulch
f 85/5/2 129/6/2 134/7/2 80/8/2
f 36/9/3 178/10/3 183/11/3 31/12/3
f 92/13/4 122/14/4 127/15/4 87/16/4
f 43/17/5 171/18/5 176/19/5 38/20/5
f 100/21/6 115/22/6 120/23/6 94/24/6
f 50/25/7 164/26/7 169/27/7 45/28/7
f 108/29/8 205/30/8 198/31/8 191/32/8 184/33/8 177/34/8 170/35/8 163/36/8 156/37/8 149/38/8 142/39/8 135/40/8 128/41/8 121/42/8 114/43/8
f 57/44/9 157/45/9 162/46/9 52/47/9
f 2/29/10 101/43/10 93/42/10 86/41/10 79/40/10 72/39/10 65/38/10 58/48/10 51/36/10 44/35/10 37/34/10 30/33/10 23/32/10 16/31/10 9/30/10
f 64/49/11 150/50/11 155/51/11 59/52/11
f 15/53/12 199/54/12 204/55/12 10/56/12
f 71/57/13 143/58/13 148/59/13 66/60/13
f 22/61/14 192/62/14 197/63/14 17/64/14
f 78/65/15 136/66/15 141/67/15 73/68/15
f 29/69/16 185/70/16 190/71/16 24/72/16
f 1/73/17 4/74/17 5/75/17 7/76/17
f 2/29/18 6/77/18 5/78/18 4/79/18
f 9/30/21 13/84/21 12/85/21 11/86/21
f 10/56/22 14/83/22 12/82/22 13/87/22
f 15/53/23 18/88/23 19/89/23 21/90/23
f 16/31/24 20/91/24 19/92/24 18/93/24
f 17/64/25 21/90/25 19/89/25 20/94/25
f 22/61/26 25/95/26 26/96/26 28/97/26
f 23/32/27 27/98/27 26/99/27 25/100/27
f 24/72/28 28/97/28 26/96/28 27/101/28
f 29/69/29 32/102/29 33/103/29 35/104/29
f 30/33/30 34/105/30 33/106/30 32/107/30
f 31/12/31 35/104/31 33/103/31 34/108/31
f 36/9/32 39/109/32 40/110/32 42/111/32
f 37/34/33 41/112/33 40/113/33 39/114/33
f 38/20/34 42/111/34 40/110/34 41/115/34
f 43/17/35 46/116/35 47/117/35 49/118/35
f 44/35/36 48/119/36 47/120/36 46/121/36
f 45/28/37 49/118/37 47/117/37 48/122/37
f 50/25/38 53/123/38 54/124/38 56/125/38
f 51/36/39 55/126/39 54/127/39 53/128/39
f 52/47/40 56/125/40 54/124/40 55/129/40
f 57/44/41 60/130/41 61/131/41 63/132/41
f 58/48/42 62/133/42 61/134/42 60/135/42
f 59/52/43 63/132/43 61/131/43 62/136/43
f 64/49/44 67/137/44 68/138/44 70/139/44
f 65/38/45 69/140/45 68/141/45 67/142/45
f 66/60/46 70/139/46 68/138/46 69/143/46
f 71/57/47 74/144/47 75/145/47 77/146/47
f 72/39/48 76/147/48 75/148/48 74/149/48
f 73/68/49 77/146/49 75/145/49 76/150/49
f 78/65/50 81/151/50 82/152/50 84/153/50
f 79/40/51 83/154/51 82/155/51 81/156/51
f 80/8/52 84/153/52 82/152/52 83/157/52
f 85/5/53 88/158/53 89/159/53 91/160/53
f 86/41/54 90/161/54 89/162/54 88/163/54
f 87/16/55 91/160/55 89/159/55 90/164/55
f 92/13/56 95/165/56 96/166/56 98/167/56
f 93/42/57 97/168/57 96/169/57 95/170/57
f 94/24/58 98/167/58 96/166/58 97/171/58
f 99/172/59 102/173/59 103/174/59 105/175/59
f 100/21/60 104/176/60 103/174/60 102/173/60
f 101/43/61 105/177/61 103/178/61 104/179/61
f 106/180/62 109/181/62 110/182/62 112/183/62
f 108/29/64 112/79/64 110/78/64 111/185/64
f 113/186/65 116/187/65 117/188/65 119/189/65
f 114/43/66 118/179/66 117/178/66 116/177/66
f 115/22/67 119/189/67 117/188/67 118/190/67
f 120/23/68 123/191/68 124/192/68 126/193/68
f 121/42/69 125/194/69 124/195/69 123/196/69
f 122/14/70 126/193/70 124/192/70 125/197/70
f 127/15/71 130/198/71 131/199/71 133/200/71
f 128/41/72 132/201/72 131/162/72 130/202/72
f 129/6/73 133/200/73 131/199/73 132/203/73
f 134/7/74 137/204/74 138/205/74 140/206/74
f 135/40/75 139/207/75 138/208/75 137/154/75
f 136/66/76 140/206/76 138/205/76 139/209/76
f 141/67/77 144/210/77 145/211/77 147/212/77
f 142/39/78 146/149/78 145/148/78 144/213/78
f 143/58/79 147/212/79 145/211/79 146/214/79
f 148/59/80 151/215/80 152/216/80 154/217/80
f 149/38/81 153/142/81 152/218/81 151/219/81
f 150/50/82 154/217/82 152/216/82 153/220/82
f 155/51/83 158/221/83 159/222/83 161/223/83
f 156/37/84 160/224/84 159/225/84 158/226/84
f 157/45/85 161/223/85 159/222/85 160/227/85
f 162/46/86 165/228/86 166/229/86 168/230/86
f 163/36/87 167/231/87 166/232/87 165/126/87
f 164/26/88 168/230/88 166/229/88 167/233/88
f 169/27/89 172/234/89 173/235/89 175/236/89
f 170/35/90 174/237/90 173/120/90 172/119/90
f 171/18/91 175/236/91 173/235/91 174/238/91
f 176/19/92 179/239/92 180/240/92 182/241/92
f 177/34/93 181/114/93 180/242/93 179/243/93
f 178/10/94 182/241/94 180/240/94 181/244/94
f 183/11/95 186/245/95 187/246/95 189/247/95
f 184/33/96 188/248/96 187/106/96 186/249/96
f 185/70/97 189/247/97 187/246/97 188/250/97
f 190/71/98 193/251/98 194/252/98 196/253/98
f 191/32/99 195/254/99 194/255/99 193/256/99
f 192/62/100 196/253/100 194/252/100 195/257/100
f 197/63/101 200/258/101 201/259/101 203/260/101
f 198/31/102 202/93/102 201/92/102 200/91/102
f 199/54/103 203/260/103 201/259/103 202/261/103
f 204/55/104 207/262/104 208/263/104 210/264/104
f 205/30/105 209/265/105 208/85/105 207/84/105
f 101/43/107 2/29/107 4/79/107 105/177/107
f 105/175/108 4/74/108 1/73/108 99/172/108
f 2/29/109 9/30/109 11/86/109 6/77/109
f 9/30/111 16/31/111 18/93/111 13/84/111
f 13/87/112 18/88/112 15/53/112 10/56/112
f 16/31/113 23/32/113 25/100/113 20/91/113
f 20/94/114 25/95/114 22/61/114 17/64/114
f 23/32/115 30/33/115 32/107/115 27/98/115
f 27/101/116 32/102/116 29/69/116 24/72/116
f 30/33/117 37/34/117 39/114/117 34/105/117
f 34/108/118 39/109/118 36/9/118 31/12/118
f 37/34/119 44/35/119 46/121/119 41/112/119
f 41/115/120 46/116/120 43/17/120 38/20/120
f 44/35/121 51/36/121 53/128/121 48/119/121
f 48/122/122 53/123/122 50/25/122 45/28/122
f 51/36/123 58/48/123 60/135/123 55/126/123
f 55/129/124 60/130/124 57/44/124 52/47/124
f 58/48/125 65/38/125 67/142/125 62/133/125
f 62/136/126 67/137/126 64/49/126 59/52/126
f 65/38/127 72/39/127 74/149/127 69/140/127
f 69/143/128 74/144/128 71/57/128 66/60/128
f 72/39/129 79/40/129 81/156/129 76/147/129
f 76/150/130 81/151/130 78/65/130 73/68/130
f 79/40/131 86/41/131 88/163/131 83/154/131
f 83/157/132 88/158/132 85/5/132 80/8/132
f 86/41/133 93/42/133 95/170/133 90/161/133
f 90/164/134 95/165/134 92/13/134 87/16/134
f 93/42/135 101/43/135 104/179/135 97/168/135
f 97/171/136 104/176/136 100/21/136 94/24/136
f 113/186/137 106/180/137 112/183/137 116/187/137
f 116/177/138 112/79/138 108/29/138 114/43/138
f 120/23/139 115/22/139 118/190/139 123/191/139
f 123/196/140 118/179/140 114/43/140 121/42/140
f 127/15/141 122/14/141 125/197/141 130/198/141
f 130/202/142 125/194/142 121/42/142 128/41/142
f 134/7/143 129/6/143 132/203/143 137/204/143
f 137/154/144 132/201/144 128/41/144 135/40/144
f 141/67/145 136/66/145 139/209/145 144/210/145
f 144/213/146 139/207/146 135/40/146 142/39/146
f 148/59/147 143/58/147 146/214/147 151/215/147
f 151/219/148 146/149/148 142/39/148 149/38/148
f 155/51/149 150/50/149 153/220/149 158/221/149
f 158/226/150 153/142/150 149/38/150 156/37/150
f 162/46/151 157/45/151 160/227/151 165/228/151
f 165/126/152 160/224/152 156/37/152 163/36/152
f 169/27/153 164/26/153 167/233/153 172/234/153
f 172/119/154 167/231/154 163/36/154 170/35/154
f 176/19/155 171/18/155 174/238/155 179/239/155
f 179/243/156 174/237/156 170/35/156 177/34/156
f 183/11/157 178/10/157 181/244/157 186/245/157
f 186/249/158 181/114/158 177/34/158 184/33/158
f 190/71/159 185/70/159 188/250/159 193/251/159
f 193/256/160 188/248/160 184/33/160 191/32/160
f 197/63/161 192/62/161 195/257/161 200/258/161
f 200/91/162 195/254/162 191/32/162 198/31/162
f 204/55/163 199/54/163 202/261/163 207/262/163
f 207/84/164 202/93/164 198/31/164 205/30/164
f 111/185/166 209/265/166 205/30/166 108/29/166
f 73/68/167 141/67/167 147/212/167 77/146/167
f 77/146/167 147/212/167 143/58/167 71/57/167
f 136/66/168 78/65/168 84/153/168 140/206/168
f 140/206/168 84/153/168 80/8/168 134/7/168
f 24/72/169 190/71/169 196/253/169 28/97/169
f 28/97/169 196/253/169 192/62/169 22/61/169
f 185/70/170 29/69/170 35/104/170 189/247/170
f 189/247/170 35/104/170 31/12/170 183/11/170
f 129/6/171 85/5/171 91/160/171 133/200/171
f 133/200/171 91/160/171 87/16/171 127/15/171
f 178/10/172 36/9/172 42/111/172 182/241/172
f 182/241/172 42/111/172 38/20/172 176/19/172
f 122/14/173 92/13/173 98/167/173 126/193/173
f 126/193/173 98/167/173 94/24/173 120/23/173
f 171/18/174 43/17/174 49/118/174 175/236/174
f 175/236/174 49/118/174 45/28/174 169/27/174
f 115/22/175 100/21/175 102/173/175 119/189/175
f 119/189/176 102/173/176 99/172/176 113/186/176
f 164/26/177 50/25/177 56/125/177 168/230/177
f 168/230/178 56/125/178 52/47/178 162/46/178
f 106/180/179 1/73/179 7/76/179 109/181/179
f 157/45/181 57/44/181 63/132/181 161/223/181
f 161/223/182 63/132/182 59/52/182 155/51/182
f 210/264/184 14/83/184 10/56/184 204/55/184
f 150/50/185 64/49/185 70/139/185 154/217/185
f 154/217/186 70/139/186 66/60/186 148/59/186
f 199/54/187 15/53/187 21/90/187 203/260/187
f 203/260/188 21/90/188 17/64/188 197/63/188
f 1/73/189 106/180/189 113/186/189 99/172/189
usemtl soil
f 8/1/1 206/2/1 107/3/1 3/4/1
f 3/4/19 7/76/19 5/75/19 6/80/19
f 8/1/20 11/81/20 12/82/20 14/83/20
f 107/3/63 111/184/63 110/182/63 109/181/63
f 206/2/106 210/264/106 208/263/106 209/266/106
f 6/80/110 11/81/110 8/1/110 3/4/110
f 107/3/165 206/2/165 209/266/165 111/184/165
f 109/181/180 7/76/180 3/4/180 107/3/180
f 206/2/183 8/1/183 14/83/183 210/264/183
