# Blender 4.2.21 LTS
# www.blender.org
mtllib bed.mtl
o bed
v -4.975000 0.024572 0.495393
v -5.000000 0.025000 0.469877
v -4.975000 0.000000 0.475000
v -4.995917 0.024786 0.491051
v -4.993845 0.006103 0.492647
v -4.995917 0.004228 0.473990
v -4.975000 0.003869 0.495338
v -4.975000 0.000000 -0.475000
v -5.000000 0.025000 -0.469877
v -4.975000 0.024572 -0.495393
v -4.995917 0.004228 -0.473990
v -4.993845 0.006103 -0.492647
v -4.995917 0.024786 -0.491051
v -4.975000 0.003869 -0.495338
v -4.975000 0.375428 -0.429607
v -5.000000 0.377845 -0.403718
v -4.975000 0.403616 -0.400263
v -4.995917 0.375419 -0.424991
v -4.993845 0.394692 -0.419902
v -4.995917 0.399002 -0.400440
v -4.975000 0.396981 -0.422100
v -4.975000 0.406737 -0.378904
v -5.000000 0.385598 -0.350672
v -4.975000 0.413727 -0.329395
v -4.995917 0.404496 -0.366005
v -4.994524 0.409329 -0.354022
v -4.995917 0.408002 -0.341170
v -4.975000 0.410232 -0.354150
v -4.975000 0.416626 -0.308105
v -5.000000 0.395197 -0.280194
v -4.975000 0.422904 -0.258503
v -4.995917 0.414251 -0.295285
v -4.994524 0.418933 -0.283198
v -4.995917 0.417410 -0.270326
v -4.975000 0.419765 -0.283304
v -4.975000 0.425380 -0.237331
v -5.000000 0.403414 -0.209930
v -4.975000 0.430519 -0.187600
v -4.995917 0.422757 -0.224608
v -4.994524 0.427178 -0.212386
v -4.995917 0.425349 -0.199517
v -4.975000 0.427950 -0.212465
v -4.975000 0.432406 -0.166567
v -5.000000 0.409704 -0.139844
v -4.975000 0.436049 -0.116706
v -4.995917 0.429438 -0.153957
v -4.994524 0.433504 -0.141584
v -4.995917 0.431280 -0.128750
v -4.975000 0.434228 -0.141636
v -4.975000 0.437229 -0.095794
v -5.000000 0.413651 -0.069889
v -4.975000 0.439118 -0.045838
v -4.995917 0.433843 -0.083315
v -4.994524 0.437545 -0.070792
v -4.995917 0.434799 -0.058026
v -4.975000 0.438486 -0.070828
v -4.975000 0.439519 -0.024995
v -5.000000 0.414995 -0.000000
v -4.975000 0.439519 0.024995
v -4.995917 0.435672 -0.012659
v -4.994524 0.438903 0.000000
v -4.995917 0.435672 0.012659
v -4.974999 0.439843 0.000000
v -4.975000 0.439118 0.045838
v -5.000000 0.413651 0.069889
v -4.975000 0.437229 0.095794
v -4.995917 0.434799 0.058026
v -4.994524 0.437545 0.070792
v -4.995917 0.433843 0.083315
v -4.975000 0.438486 0.070828
v -4.975000 0.436049 0.116706
v -5.000000 0.409704 0.139844
v -4.975000 0.432406 0.166567
v -4.995917 0.431280 0.128750
v -4.994524 0.433504 0.141584
v -4.995917 0.429438 0.153958
v -4.975000 0.434228 0.141636
v -4.975000 0.430519 0.187600
v -5.000000 0.403414 0.209930
v -4.975000 0.425380 0.237331
v -4.995917 0.425349 0.199517
v -4.994524 0.427178 0.212386
v -4.995917 0.422757 0.224608
v -4.975000 0.427950 0.212465
v -4.975000 0.422904 0.258503
v -5.000000 0.395197 0.280194
v -4.975000 0.416626 0.308105
v -4.995917 0.417410 0.270326
v -4.994524 0.418933 0.283198
v -4.995917 0.414251 0.295285
v -4.975000 0.419765 0.283304
v -4.975000 0.413727 0.329395
v -5.000000 0.385598 0.350672
v -4.975000 0.406737 0.378904
v -4.995917 0.408002 0.341170
v -4.994524 0.409329 0.354022
v -4.995917 0.404496 0.366005
v -4.975000 0.410232 0.354150
v -4.975000 0.375428 0.429607
v -4.975000 0.403616 0.400263
v -5.000000 0.377845 0.403718
v -4.975000 0.396981 0.422100
v -4.993845 0.394692 0.419902
v -4.995916 0.399002 0.400440
v -4.995916 0.375419 0.424991
v 4.975000 0.024572 0.495393
v 4.975000 0.000000 0.475000
v 5.000000 0.025000 0.469877
v 4.975000 0.003869 0.495338
v 4.993845 0.006103 0.492647
v 4.995916 0.004228 0.473990
v 4.995916 0.024786 0.491051
v 4.975000 0.375428 0.429607
v 5.000000 0.377845 0.403718
v 4.975000 0.403616 0.400263
v 4.995917 0.375419 0.424991
v 4.993845 0.394692 0.419902
v 4.995917 0.399002 0.400440
v 4.975000 0.396981 0.422100
v 4.975000 0.406737 0.378904
v 5.000000 0.385598 0.350672
v 4.975000 0.413727 0.329395
v 4.995917 0.404496 0.366005
v 4.994524 0.409329 0.354022
v 4.995917 0.408002 0.341170
v 4.975000 0.410232 0.354150
v 4.975000 0.416626 0.308105
v 5.000000 0.395197 0.280194
v 4.975000 0.422904 0.258503
v 4.995917 0.414251 0.295285
v 4.994524 0.418933 0.283198
v 4.995917 0.417410 0.270326
v 4.975000 0.419765 0.283304
v 4.975000 0.425380 0.237331
v 5.000000 0.403414 0.209930
v 4.975000 0.430519 0.187600
v 4.995917 0.422757 0.224608
v 4.994524 0.427178 0.212386
v 4.995917 0.425349 0.199517
v 4.975000 0.427950 0.212465
v 4.975000 0.432406 0.166567
v 5.000000 0.409704 0.139844
v 4.975000 0.436049 0.116706
v 4.995917 0.429438 0.153957
v 4.994524 0.433504 0.141584
v 4.995917 0.431280 0.128750
v 4.975000 0.434228 0.141636
v 4.975000 0.437229 0.095794
v 5.000000 0.413651 0.069889
v 4.975000 0.439118 0.045838
v 4.995917 0.433843 0.083315
v 4.994524 0.437545 0.070792
v 4.995917 0.434799 0.058026
v 4.975000 0.438486 0.070828
v 4.975000 0.439519 0.024995
v 5.000000 0.414995 0.000000
v 4.975000 0.439519 -0.024995
v 4.995917 0.435672 0.012659
v 4.994524 0.438903 0.000000
v 4.995917 0.435672 -0.012659
v 4.975000 0.439843 -0.000000
v 4.975000 0.439118 -0.045838
v 5.000000 0.413651 -0.069889
v 4.975000 0.437229 -0.095794
v 4.995917 0.434799 -0.058026
v 4.994524 0.437545 -0.070792
v 4.995917 0.433843 -0.083315
v 4.975000 0.438486 -0.070828
v 4.975000 0.436049 -0.116706
v 5.000000 0.409704 -0.139844
v 4.975000 0.432406 -0.166567
v 4.995917 0.431280 -0.128750
v 4.994524 0.433504 -0.141584
v 4.995917 0.429438 -0.153958
v 4.975000 0.434228 -0.141636
v 4.975000 0.430519 -0.187600
v 5.000000 0.403414 -0.209930
v 4.975000 0.425380 -0.237331
v 4.995917 0.425349 -0.199517
v 4.994524 0.427178 -0.212386
v 4.995917 0.422757 -0.224608
v 4.975000 0.427950 -0.212465
v 4.975000 0.422904 -0.258503
v 5.000000 0.395197 -0.280194
v 4.975000 0.416626 -0.308105
v 4.995917 0.417410 -0.270326
v 4.994524 0.418933 -0.283198
v 4.995917 0.414251 -0.295285
v 4.975000 0.419765 -0.283304
v 4.975000 0.413727 -0.329395
v 5.000000 0.385598 -0.350672
v 4.975000 0.406737 -0.378904
v 4.995917 0.408002 -0.341170
v 4.994524 0.409329 -0.354022
v 4.995917 0.404496 -0.366005
v 4.975000 0.410232 -0.354150
v 4.975000 0.403616 -0.400263
v 5.000000 0.377845 -0.403718
v 4.975000 0.375428 -0.429607
v 4.995917 0.399002 -0.400440
v 4.993845 0.394692 -0.419902
v 4.995917 0.375419 -0.424991
v 4.975000 0.396981 -0.422100
v 4.975000 0.024572 -0.495393
v 5.000000 0.025000 -0.469877
v 4.975000 0.000000 -0.475000
v 4.995917 0.024786 -0.491051
v 4.993845 0.006103 -0.492647
v 4.995917 0.004228 -0.473990
v 4.975000 0.003869 -0.495338
vn -0.0000 -1.0000 -0.0000
vn -0.0000 0.9909 0.1350
vn -0.0000 0.9960 -0.0894
vn -0.0000 0.9895 0.1446
vn -0.0000 0.9984 -0.0563
vn 1.0000 -0.0000 -0.0000
vn -0.0000 0.9998 -0.0192
vn -1.0000 -0.0000 -0.0000
vn -0.0000 0.9998 0.0192
vn -0.0000 0.1843 -0.9829
vn -0.0000 0.9984 0.0563
vn -0.0000 0.9895 -0.1446
vn -0.0000 0.9960 0.0894
vn -0.0000 0.9909 -0.1350
vn -0.0000 0.9932 0.1162
vn -0.0000 0.9932 -0.1162
vn -0.1723 0.0294 0.9846
vn -0.9790 -0.1301 0.1567
vn -0.1723 -0.9732 0.1525
vn -0.1723 -0.9732 -0.1525
vn -0.9790 -0.1301 -0.1567
vn -0.1723 0.0294 -0.9846
vn -0.1779 0.2984 -0.9377
vn -0.9670 0.1837 -0.1765
vn -0.1779 0.9490 -0.2604
vn -0.1439 0.9663 -0.2136
vn -0.9749 0.2206 -0.0311
vn -0.1439 0.9876 -0.0623
vn -0.1409 0.9696 -0.2002
vn -0.9748 0.2214 -0.0280
vn -0.1409 0.9889 -0.0476
vn -0.1383 0.9742 -0.1784
vn -0.9747 0.2223 -0.0230
vn -0.1383 0.9901 -0.0245
vn -0.1362 0.9793 -0.1495
vn -0.9747 0.2231 -0.0163
vn -0.1362 0.9907 0.0055
vn -0.1436 0.9818 -0.1245
vn -0.9748 0.2231 -0.0084
vn -0.1436 0.9884 0.0500
vn -0.1434 0.9858 -0.0878
vn -0.9748 0.2233 -0.0000
vn -0.1434 0.9858 0.0877
vn -0.1436 0.9884 -0.0500
vn -0.9748 0.2231 0.0084
vn -0.1436 0.9818 0.1245
vn -0.1362 0.9907 -0.0055
vn -0.9747 0.2231 0.0163
vn -0.1362 0.9793 0.1495
vn -0.1383 0.9901 0.0245
vn -0.9747 0.2223 0.0230
vn -0.1383 0.9742 0.1784
vn -0.1409 0.9889 0.0476
vn -0.9748 0.2214 0.0280
vn -0.1409 0.9696 0.2002
vn -0.1439 0.9876 0.0623
vn -0.9749 0.2206 0.0311
vn -0.1439 0.9663 0.2136
vn -0.1779 0.2984 0.9377
vn -0.1779 0.9490 0.2604
vn -0.9670 0.1838 0.1765
vn 0.1723 0.0294 0.9846
vn 0.1723 -0.9732 0.1525
vn 0.9790 -0.1301 0.1567
vn 0.1779 0.2984 0.9377
vn 0.9670 0.1837 0.1765
vn 0.1779 0.9490 0.2604
vn 0.1439 0.9663 0.2136
vn 0.9749 0.2206 0.0311
vn 0.1439 0.9876 0.0623
vn 0.1409 0.9696 0.2002
vn 0.9748 0.2214 0.0280
vn 0.1409 0.9889 0.0476
vn 0.1383 0.9742 0.1784
vn 0.9747 0.2223 0.0230
vn 0.1383 0.9901 0.0245
vn 0.1362 0.9793 0.1495
vn 0.9747 0.2231 0.0163
vn 0.1362 0.9907 -0.0055
vn 0.1436 0.9818 0.1245
vn 0.9748 0.2231 0.0084
vn 0.1436 0.9884 -0.0500
vn 0.1435 0.9858 0.0877
vn 0.9748 0.2233 -0.0000
vn 0.1434 0.9858 -0.0877
vn 0.1436 0.9884 0.0500
vn 0.9748 0.2231 -0.0084
vn 0.1436 0.9818 -0.1245
vn 0.1362 0.9907 0.0055
vn 0.9747 0.2231 -0.0163
vn 0.1362 0.9793 -0.1495
vn 0.1383 0.9901 -0.0245
vn 0.9747 0.2223 -0.0230
vn 0.1383 0.9742 -0.1784
vn 0.1409 0.9889 -0.0476
vn 0.9748 0.2214 -0.0280
vn 0.1409 0.9696 -0.2002
vn 0.1439 0.9876 -0.0623
vn 0.9749 0.2206 -0.0311
vn 0.1439 0.9663 -0.2136
vn 0.1779 0.9490 -0.2604
vn 0.9670 0.1837 -0.1765
vn 0.1779 0.2984 -0.9377
vn 0.1723 0.0294 -0.9846
vn 0.9790 -0.1301 -0.1567
vn 0.1723 -0.9732 -0.1525
vn -0.9809 0.0359 0.1910
vn -0.2051 0.1808 0.9619
vn -0.9812 -0.1929 -0.0000
vn -0.1981 -0.9802 -0.0000
vn -0.9809 0.0359 -0.1910
vn -0.2051 0.1808 -0.9619
vn -0.9811 0.1913 -0.0290
vn -0.2040 0.9675 -0.1494
vn -0.9815 0.1898 -0.0259
vn -0.1916 0.9725 -0.1325
vn -0.9815 0.1903 -0.0223
vn -0.1916 0.9748 -0.1140
vn -0.9815 0.1908 -0.0171
vn -0.1916 0.9775 -0.0877
vn -0.9815 0.1913 -0.0108
vn -0.1916 0.9799 -0.0553
vn -0.9815 0.1916 -0.0037
vn -0.1916 0.9813 -0.0189
vn -0.9815 0.1916 0.0037
vn -0.1916 0.9813 0.0189
vn -0.9815 0.1913 0.0108
vn -0.1916 0.9799 0.0553
vn -0.9815 0.1908 0.0171
vn -0.1916 0.9775 0.0877
vn -0.9815 0.1903 0.0223
vn -0.1916 0.9748 0.1140
vn -0.9815 0.1898 0.0259
vn -0.1916 0.9725 0.1325
vn -0.9811 0.1913 0.0290
vn -0.2040 0.9675 0.1494
vn 0.2051 0.1808 0.9619
vn 0.9809 0.0359 0.1910
vn 0.2040 0.9675 0.1494
vn 0.9811 0.1913 0.0290
vn 0.1916 0.9725 0.1325
vn 0.9815 0.1898 0.0259
vn 0.1916 0.9748 0.1140
vn 0.9815 0.1903 0.0223
vn 0.1916 0.9775 0.0877
vn 0.9815 0.1908 0.0171
vn 0.1916 0.9799 0.0553
vn 0.9815 0.1913 0.0108
vn 0.1916 0.9813 0.0189
vn 0.9815 0.1916 0.0037
vn 0.1916 0.9813 -0.0189
vn 0.9815 0.1916 -0.0037
vn 0.1916 0.9799 -0.0553
vn 0.9815 0.1913 -0.0108
vn 0.1916 0.9775 -0.0877
vn 0.9815 0.1908 -0.0171
vn 0.1916 0.9748 -0.1140
vn 0.9815 0.1903 -0.0223
vn 0.1916 0.9725 -0.1325
vn 0.9815 0.1898 -0.0259
vn 0.2040 0.9675 -0.1494
vn 0.9811 0.1913 -0.0290
vn 0.2051 0.1808 -0.9619
vn 0.9809 0.0359 -0.1910
vn 0.1981 -0.9802 -0.0000
vn 0.9812 -0.1929 -0.0000
vn -0.0000 0.9947 0.1028
vn -0.0000 0.9921 0.1256
vn -0.0000 0.9921 -0.1256
vn -0.0000 0.9947 -0.1028
vn -0.0000 0.9902 0.1398
vn -0.0000 0.9973 -0.0729
vn -0.0000 0.9568 0.2907
vn -0.0000 0.3290 0.9443
vn -0.0000 0.9987 -0.0503
vn -0.0000 0.9997 -0.0253
vn -0.0000 -0.0027 1.0000
vn -0.0000 -0.9824 0.1869
vn -0.0000 0.9999 -0.0130
vn -0.0000 0.9999 0.0130
vn -0.0000 -0.9824 -0.1869
vn -0.0000 -0.0027 -1.0000
vn -0.0000 0.9997 0.0253
vn -0.0000 0.9987 0.0503
vn -0.0000 0.3290 -0.9443
vn -0.0000 0.9568 -0.2907
vn -0.0000 0.9973 0.0729
vn -0.0000 0.9902 -0.1398
vn -0.0000 0.1843 0.9829
vt -4.975000 0.975000
vt 4.975000 0.975000
vt 4.975000 0.025000
vt -4.975000 0.025000
vt -4.975000 0.170605
vt 4.975000 0.170605
vt 4.975000 0.191895
vt -4.975000 0.191895
vt -4.975000 0.666567
vt 4.975000 0.666567
vt 4.975000 0.687600
vt -4.975000 0.687600
vt -4.975000 0.099737
vt 4.975000 0.099737
vt 4.975000 0.121096
vt -4.975000 0.121096
vt -4.975000 0.595794
vt 4.975000 0.595794
vt 4.975000 0.616706
vt -4.975000 0.616706
vt -0.469877 0.050000
vt 0.469877 0.050000
vt 0.403718 0.755690
vt 0.350672 0.771196
vt 0.280194 0.790394
vt 0.209930 0.806829
vt 0.139844 0.819408
vt 0.069889 0.827301
vt -0.000000 0.829991
vt -0.069889 0.827301
vt -0.139844 0.819408
vt -0.209930 0.806829
vt -0.280194 0.790394
vt -0.350672 0.771196
vt -0.403718 0.755690
vt -4.975000 0.524995
vt 4.975000 0.524995
vt 4.975000 0.545838
vt -4.975000 0.545838
vt -0.469877 0.050000
vt 0.000000 0.829991
vt 0.469877 0.050000
vt -4.975000 0.454162
vt 4.975000 0.454162
vt 4.975000 0.475005
vt -4.975000 0.475005
vt -4.975000 0.929607
vt 4.975000 0.929607
vt 4.975000 0.995393
vt -4.975000 0.995393
vt -4.975000 0.383294
vt 4.975000 0.383294
vt 4.975000 0.404206
vt -4.975000 0.404206
vt -4.975000 0.878904
vt 4.975000 0.878904
vt 4.975000 0.900263
vt -4.975000 0.900263
vt -4.975000 0.312400
vt 4.975000 0.312400
vt 4.975000 0.333433
vt -4.975000 0.333433
vt -4.975000 0.808105
vt 4.975000 0.808105
vt 4.975000 0.829395
vt -4.975000 0.829395
vt -4.975000 0.241497
vt 4.975000 0.241497
vt 4.975000 0.262669
vt -4.975000 0.262669
vt -4.975000 0.737331
vt 4.975000 0.737331
vt 4.975000 0.758503
vt -4.975000 0.758503
vt -4.975000 0.004607
vt -4.995917 0.008949
vt -4.993845 0.007353
vt -4.975000 0.004662
vt -0.473990 0.008455
vt -0.492647 0.012206
vt -0.491051 0.049572
vt -4.995917 0.026010
vt -4.995917 0.973989
vt -4.993845 0.992647
vt -4.975000 0.995338
vt 0.491051 0.049572
vt 0.492647 0.012206
vt 0.473990 0.008455
vt -4.995917 0.991051
vt -4.995917 0.924991
vt -4.993845 0.919902
vt -4.975000 0.922100
vt 0.400440 0.798005
vt 0.419902 0.789385
vt 0.424991 0.750839
vt -4.995917 0.900440
vt -4.995917 0.866005
vt -4.994524 0.854022
vt -4.975000 0.854150
vt 0.341170 0.816003
vt 0.354022 0.818658
vt 0.366005 0.808991
vt -4.995917 0.841170
vt -4.995917 0.795285
vt -4.994524 0.783198
vt -4.975000 0.783304
vt 0.270326 0.834820
vt 0.283198 0.837866
vt 0.295285 0.828502
vt -4.995917 0.770326
vt -4.995917 0.724608
vt -4.994524 0.712386
vt -4.975000 0.712465
vt 0.199517 0.850699
vt 0.212386 0.854357
vt 0.224608 0.845514
vt -4.995917 0.699517
vt -4.995917 0.653957
vt -4.994524 0.641584
vt -4.975000 0.641636
vt 0.128750 0.862559
vt 0.141584 0.867008
vt 0.153957 0.858876
vt -4.995917 0.628750
vt -4.995917 0.583315
vt -4.994524 0.570792
vt -4.975000 0.570828
vt 0.058026 0.869599
vt 0.070792 0.875089
vt 0.083315 0.867686
vt -4.995917 0.558026
vt -4.995917 0.512659
vt -4.994524 0.500000
vt -4.974999 0.500000
vt -0.012659 0.871344
vt -0.000000 0.877806
vt 0.012659 0.871344
vt -4.995917 0.487341
vt -4.995917 0.441974
vt -4.994524 0.429208
vt -4.975000 0.429172
vt -0.083315 0.867686
vt -0.070792 0.875089
vt -0.058026 0.869598
vt -4.995917 0.416685
vt -4.995917 0.371250
vt -4.994524 0.358416
vt -4.975000 0.358364
vt -0.153958 0.858876
vt -0.141584 0.867008
vt -0.128750 0.862559
vt -4.995917 0.346043
vt -4.995917 0.300483
vt -4.994524 0.287614
vt -4.975000 0.287535
vt -0.224608 0.845514
vt -0.212386 0.854357
vt -0.199517 0.850699
vt -4.995917 0.275392
vt -4.995917 0.229674
vt -4.994524 0.216802
vt -4.975000 0.216696
vt -0.295285 0.828502
vt -0.283198 0.837866
vt -0.270326 0.834820
vt -4.995917 0.204715
vt -4.995917 0.158830
vt -4.994524 0.145978
vt -4.975000 0.145850
vt -0.366005 0.808991
vt -0.354022 0.818658
vt -0.341170 0.816003
vt -4.995917 0.133995
vt -4.975000 0.070393
vt -4.975000 0.077900
vt -4.993845 0.080098
vt -4.995916 0.075009
vt -4.995916 0.099560
vt -0.424991 0.750839
vt -0.419902 0.789385
vt -0.400440 0.798005
vt 4.975000 0.004607
vt 4.975000 0.004662
vt 4.993845 0.007353
vt 4.995916 0.008949
vt 4.995916 0.026010
vt -0.491051 0.049572
vt -0.473990 0.008455
vt 4.975000 0.070393
vt 4.995917 0.075009
vt 4.993845 0.080098
vt 4.975000 0.077900
vt 4.995917 0.099560
vt 4.995917 0.133995
vt 4.994524 0.145978
vt 4.975000 0.145850
vt -0.341170 0.816003
vt 4.995917 0.158830
vt 4.995917 0.204715
vt 4.994524 0.216802
vt 4.975000 0.216696
vt 4.995917 0.229674
vt 4.995917 0.275392
vt 4.994524 0.287614
vt 4.975000 0.287535
vt -0.224608 0.845514
vt 4.995917 0.300483
vt 4.995917 0.346043
vt 4.994524 0.358416
vt 4.975000 0.358364
vt -0.153957 0.858876
vt 4.995917 0.371250
vt 4.995917 0.416685
vt 4.994524 0.429208
vt 4.975000 0.429172
vt -0.058026 0.869599
vt 4.995917 0.441974
vt 4.995917 0.487341
vt 4.994524 0.500000
vt 4.975000 0.500000
vt 0.012659 0.871344
vt -0.000000 0.877806
vt -0.012659 0.871344
vt 4.995917 0.512659
vt 4.995917 0.558026
vt 4.994524 0.570792
vt 4.975000 0.570828
vt 4.995917 0.583315
vt 4.995917 0.628750
vt 4.994524 0.641584
vt 4.975000 0.641636
vt 0.153958 0.858876
vt 4.995917 0.653957
vt 4.995917 0.699517
vt 4.994524 0.712386
vt 4.975000 0.712465
vt 0.224608 0.845514
vt 4.995917 0.724608
vt 4.995917 0.770326
vt 4.994524 0.783198
vt 4.975000 0.783304
vt 4.995917 0.795285
vt 4.995917 0.841170
vt 4.994524 0.854022
vt 4.975000 0.854150
vt 0.341170 0.816003
vt 4.995917 0.866005
vt 4.995917 0.900440
vt 4.993845 0.919902
vt 4.975000 0.922100
vt 4.995917 0.924991
vt 4.995917 0.991051
vt 4.993845 0.992647
vt 4.975000 0.995338
vt 0.473990 0.008455
vt 0.491051 0.049572
vt 4.995917 0.973989
s 0
usemtl mulch
f 92/5/2 122/6/2 127/7/2 87/8/2
f 43/9/3 171/10/3 176/11/3 38/12/3
f 100/13/4 115/14/4 120/15/4 94/16/4
f 50/17/5 164/18/5 169/19/5 45/20/5
f 108/21/6 205/22/6 198/23/6 191/24/6 184/25/6 177/26/6 170/27/6 163/28/6 156/29/6 149/30/6 142/31/6 135/32/6 128/33/6 121/34/6 114/35/6
f 57/36/7 157/37/7 162/38/7 52/39/7
f 2/40/8 101/35/8 93/34/8 86/33/8 79/32/8 72/31/8 65/30/8 58/41/8 51/28/8 44/27/8 37/26/8 30/25/8 23/24/8 16/23/8 9/42/8
f 64/43/9 150/44/9 155/45/9 59/46/9
f 15/47/10 199/48/10 204/49/10 10/50/10
f 71/51/11 143/52/11 148/53/11 66/54/11
f 22/55/12 192/56/12 197/57/12 17/58/12
f 78/59/13 136/60/13 141/61/13 73/62/13
f 29/63/14 185/64/14 190/65/14 24/66/14
f 85/67/15 129/68/15 134/69/15 80/70/15
f 36/71/16 178/72/16 183/73/16 31/74/16
f 1/75/17 4/76/17 5/77/17 7/78/17
f 2/40/18 6/79/18 5/80/18 4/81/18
f 9/42/21 13/86/21 12/87/21 11/88/21
f 10/50/22 14/85/22 12/84/22 13/89/22
f 15/47/23 18/90/23 19/91/23 21/92/23
f 16/23/24 20/93/24 19/94/24 18/95/24
f 17/58/25 21/92/25 19/91/25 20/96/25
f 22/55/26 25/97/26 26/98/26 28/99/26
f 23/24/27 27/100/27 26/101/27 25/102/27
f 24/66/28 28/99/28 26/98/28 27/103/28
f 29/63/29 32/104/29 33/105/29 35/106/29
f 30/25/30 34/107/30 33/108/30 32/109/30
f 31/74/31 35/106/31 33/105/31 34/110/31
f 36/71/32 39/111/32 40/112/32 42/113/32
f 37/26/33 41/114/33 40/115/33 39/116/33
f 38/12/34 42/113/34 40/112/34 41/117/34
f 43/9/35 46/118/35 47/119/35 49/120/35
f 44/27/36 48/121/36 47/122/36 46/123/36
f 45/20/37 49/120/37 47/119/37 48/124/37
f 50/17/38 53/125/38 54/126/38 56/127/38
f 51/28/39 55/128/39 54/129/39 53/130/39
f 52/39/40 56/127/40 54/126/40 55/131/40
f 57/36/41 60/132/41 61/133/41 63/134/41
f 58/41/42 62/135/42 61/136/42 60/137/42
f 59/46/43 63/134/43 61/133/43 62/138/43
f 64/43/44 67/139/44 68/140/44 70/141/44
f 65/30/45 69/142/45 68/143/45 67/144/45
f 66/54/46 70/141/46 68/140/46 69/145/46
f 71/51/47 74/146/47 75/147/47 77/148/47
f 72/31/48 76/149/48 75/150/48 74/151/48
f 73/62/49 77/148/49 75/147/49 76/152/49
f 78/59/50 81/153/50 82/154/50 84/155/50
f 79/32/51 83/156/51 82/157/51 81/158/51
f 80/70/52 84/155/52 82/154/52 83/159/52
f 85/67/53 88/160/53 89/161/53 91/162/53
f 86/33/54 90/163/54 89/164/54 88/165/54
f 87/8/55 91/162/55 89/161/55 90/166/55
f 92/5/56 95/167/56 96/168/56 98/169/56
f 93/34/57 97/170/57 96/171/57 95/172/57
f 94/16/58 98/169/58 96/168/58 97/173/58
f 99/174/59 102/175/59 103/176/59 105/177/59
f 100/13/60 104/178/60 103/176/60 102/175/60
f 101/35/61 105/179/61 103/180/61 104/181/61
f 106/182/62 109/183/62 110/184/62 112/185/62
f 108/21/64 112/187/64 110/80/64 111/188/64
f 113/189/65 116/190/65 117/191/65 119/192/65
f 114/35/66 118/181/66 117/180/66 116/179/66
f 115/14/67 119/192/67 117/191/67 118/193/67
f 120/15/68 123/194/68 124/195/68 126/196/68
f 121/34/69 125/197/69 124/171/69 123/170/69
f 122/6/70 126/196/70 124/195/70 125/198/70
f 127/7/71 130/199/71 131/200/71 133/201/71
f 128/33/72 132/165/72 131/164/72 130/163/72
f 129/68/73 133/201/73 131/200/73 132/202/73
f 134/69/74 137/203/74 138/204/74 140/205/74
f 135/32/75 139/158/75 138/157/75 137/206/75
f 136/60/76 140/205/76 138/204/76 139/207/76
f 141/61/77 144/208/77 145/209/77 147/210/77
f 142/31/78 146/151/78 145/150/78 144/211/78
f 143/52/79 147/210/79 145/209/79 146/212/79
f 148/53/80 151/213/80 152/214/80 154/215/80
f 149/30/81 153/216/81 152/143/81 151/142/81
f 150/44/82 154/215/82 152/214/82 153/217/82
f 155/45/83 158/218/83 159/219/83 161/220/83
f 156/29/84 160/221/84 159/222/84 158/223/84
f 157/37/85 161/220/85 159/219/85 160/224/85
f 162/38/86 165/225/86 166/226/86 168/227/86
f 163/28/87 167/130/87 166/129/87 165/128/87
f 164/18/88 168/227/88 166/226/88 167/228/88
f 169/19/89 172/229/89 173/230/89 175/231/89
f 170/27/90 174/232/90 173/122/90 172/121/90
f 171/10/91 175/231/91 173/230/91 174/233/91
f 176/11/92 179/234/92 180/235/92 182/236/92
f 177/26/93 181/237/93 180/115/93 179/114/93
f 178/72/94 182/236/94 180/235/94 181/238/94
f 183/73/95 186/239/95 187/240/95 189/241/95
f 184/25/96 188/109/96 187/108/96 186/107/96
f 185/64/97 189/241/97 187/240/97 188/242/97
f 190/65/98 193/243/98 194/244/98 196/245/98
f 191/24/99 195/102/99 194/101/99 193/246/99
f 192/56/100 196/245/100 194/244/100 195/247/100
f 197/57/101 200/248/101 201/249/101 203/250/101
f 198/23/102 202/95/102 201/94/102 200/93/102
f 199/48/103 203/250/103 201/249/103 202/251/103
f 204/49/104 207/252/104 208/253/104 210/254/104
f 205/22/105 209/255/105 208/87/105 207/256/105
f 101/35/107 2/40/107 4/81/107 105/179/107
f 105/177/108 4/76/108 1/75/108 99/174/108
f 2/40/109 9/42/109 11/88/109 6/79/109
f 9/42/111 16/23/111 18/95/111 13/86/111
f 13/89/112 18/90/112 15/47/112 10/50/112
f 16/23/113 23/24/113 25/102/113 20/93/113
f 20/96/114 25/97/114 22/55/114 17/58/114
f 23/24/115 30/25/115 32/109/115 27/100/115
f 27/103/116 32/104/116 29/63/116 24/66/116
f 30/25/117 37/26/117 39/116/117 34/107/117
f 34/110/118 39/111/118 36/71/118 31/74/118
f 37/26/119 44/27/119 46/123/119 41/114/119
f 41/117/120 46/118/120 43/9/120 38/12/120
f 44/27/121 51/28/121 53/130/121 48/121/121
f 48/124/122 53/125/122 50/17/122 45/20/122
f 51/28/123 58/41/123 60/137/123 55/128/123
f 55/131/124 60/132/124 57/36/124 52/39/124
f 58/41/125 65/30/125 67/144/125 62/135/125
f 62/138/126 67/139/126 64/43/126 59/46/126
f 65/30/127 72/31/127 74/151/127 69/142/127
f 69/145/128 74/146/128 71/51/128 66/54/128
f 72/31/129 79/32/129 81/158/129 76/149/129
f 76/152/130 81/153/130 78/59/130 73/62/130
f 79/32/131 86/33/131 88/165/131 83/156/131
f 83/159/132 88/160/132 85/67/132 80/70/132
f 86/33/133 93/34/133 95/172/133 90/163/133
f 90/166/134 95/167/134 92/5/134 87/8/134
f 93/34/135 101/35/135 104/181/135 97/170/135
f 97/173/136 104/178/136 100/13/136 94/16/136
f 113/189/137 106/182/137 112/185/137 116/190/137
f 116/179/138 112/187/138 108/21/138 114/35/138
f 120/15/139 115/14/139 118/193/139 123/194/139
f 123/170/140 118/181/140 114/35/140 121/34/140
f 127/7/141 122/6/141 125/198/141 130/199/141
f 130/163/142 125/197/142 121/34/142 128/33/142
f 134/69/143 129/68/143 132/202/143 137/203/143
f 137/206/144 132/165/144 128/33/144 135/32/144
f 141/61/145 136/60/145 139/207/145 144/208/145
f 144/211/146 139/158/146 135/32/146 142/31/146
f 148/53/147 143/52/147 146/212/147 151/213/147
f 151/142/148 146/151/148 142/31/148 149/30/148
f 155/45/149 150/44/149 153/217/149 158/218/149
f 158/223/150 153/216/150 149/30/150 156/29/150
f 162/38/151 157/37/151 160/224/151 165/225/151
f 165/128/152 160/221/152 156/29/152 163/28/152
f 169/19/153 164/18/153 167/228/153 172/229/153
f 172/121/154 167/130/154 163/28/154 170/27/154
f 176/11/155 171/10/155 174/233/155 179/234/155
f 179/114/156 174/232/156 170/27/156 177/26/156
f 183/73/157 178/72/157 181/238/157 186/239/157
f 186/107/158 181/237/158 177/26/158 184/25/158
f 190/65/159 185/64/159 188/242/159 193/243/159
f 193/246/160 188/109/160 184/25/160 191/24/160
f 197/57/161 192/56/161 195/247/161 200/248/161
f 200/93/162 195/102/162 191/24/162 198/23/162
f 204/49/163 199/48/163 202/251/163 207/252/163
f 207/256/164 202/95/164 198/23/164 205/22/164
f 111/188/166 209/255/166 205/22/166 108/21/166
f 80/70/167 134/69/167 140/205/167 84/155/167
f 84/155/167 140/205/167 136/60/167 78/59/167
f 129/68/168 85/67/168 91/162/168 133/201/168
f 133/201/168 91/162/168 87/8/168 127/7/168
f 31/74/169 183/73/169 189/241/169 35/106/169
f 35/106/169 189/241/169 185/64/169 29/63/169
f 178/72/170 36/71/170 42/113/170 182/236/170
f 182/236/170 42/113/170 38/12/170 176/11/170
f 122/6/171 92/5/171 98/169/171 126/196/171
f 126/196/171 98/169/171 94/16/171 120/15/171
f 171/10/172 43/9/172 49/120/172 175/231/172
f 175/231/172 49/120/172 45/20/172 169/19/172
f 115/14/173 100/13/173 102/175/173 119/192/173
f 119/192/174 102/175/174 99/174/174 113/189/174
f 164/18/175 50/17/175 56/127/175 168/227/175
f 168/227/176 56/127/176 52/39/176 162/38/176
f 106/182/177 1/75/177 7/78/177 109/183/177
f 157/37/179 57/36/179 63/134/179 161/220/179
f 161/220/180 63/134/180 59/46/180 155/45/180
f 210/254/182 14/85/182 10/50/182 204/49/182
f 150/44/183 64/43/183 70/141/183 154/215/183
f 154/215/184 70/141/184 66/54/184 148/53/184
f 199/48/185 15/47/185 21/92/185 203/250/185
f 203/250/186 21/92/186 17/58/186 197/57/186
f 143/52/187 71/51/187 77/148/187 147/210/187
f 147/210/187 77/148/187 73/62/187 141/61/187
f 192/56/188 22/55/188 28/99/188 196/245/188
f 196/245/188 28/99/188 24/66/188 190/65/188
f 1/75/189 106/182/189 113/189/189 99/174/189
usemtl soil
f 8/1/1 206/2/1 107/3/1 3/4/1
f 3/4/19 7/78/19 5/77/19 6/82/19
f 8/1/20 11/83/20 12/84/20 14/85/20
f 107/3/63 111/186/63 110/184/63 109/183/63
f 206/2/106 210/254/106 208/253/106 209/257/106
f 6/82/110 11/83/110 8/1/110 3/4/110
f 107/3/165 206/2/165 209/257/165 111/186/165
f 109/183/178 7/78/178 3/4/178 107/3/178
f 206/2/181 8/1/181 14/85/181 210/254/181
