# Hedge wall: box 28 (length, X) x 0.4 (thick, Y) x 1.2 (tall, Z), Z-up,
# base at z=0, foliage texture tiled ~1/m. Bottom face omitted (hidden).
mtllib hedge.mtl
v -14 -0.2 0
v 14 -0.2 0
v 14 0.2 0
v -14 0.2 0
v -14 -0.2 1.2
v 14 -0.2 1.2
v 14 0.2 1.2
v -14 0.2 1.2
vt 0 0
vt 0.4 0
vt 0.4 1.2
vt 0 1.2
vt 0 0
vt 0.4 0
vt 0.4 1.2
vt 0 1.2
vt 28 0
vt 0 0
vt 0 1.2
vt 28 1.2
vt 0 0
vt 28 0
vt 28 1.2
vt 0 1.2
vt 0 0
vt 28 0
vt 28 0.4
vt 0 0.4
vn 1 0 0
vn -1 0 0
vn 0 1 0
vn 0 -1 0
vn 0 0 1
usemtl hedge
f 2/1/1 3/2/1 7/3/1 6/4/1
f 4/5/2 1/6/2 5/7/2 8/8/2
f 3/9/3 4/10/3 8/11/3 7/12/3
f 1/13/4 2/14/4 6/15/4 5/16/4
f 5/17/5 6/18/5 7/19/5 8/20/5
